<?xml version="1.0" encoding="UTF-8" standalone="no"?><!DOCTYPE svg PUBLIC "-//W3C//DTD SVG 1.1//EN" "http://www.w3.org/Graphics/SVG/1.1/DTD/svg11.dtd"><svg width="100%" height="100%" viewBox="0 0 634 582" version="1.1" xmlns="http://www.w3.org/2000/svg" xmlns:xlink="http://www.w3.org/1999/xlink" xml:space="preserve" xmlns:serif="http://www.serif.com/" style="fill-rule:evenodd;clip-rule:evenodd;stroke-linejoin:round;stroke-miterlimit:2;"><rect id="BracketWise-LogoMark-Light" x="0" y="0" width="633.478" height="581.208" style="fill:none;"/><path d="M316.827,156.847l23.883,79.042c2.11,6.982 5.912,13.334 11.07,18.491c5.157,5.157 11.51,8.96 18.491,11.07l79.042,23.883l-79.042,23.883c-6.982,2.11 -13.334,5.912 -18.491,11.07c-5.157,5.157 -8.96,11.51 -11.07,18.491l-23.883,79.042l-23.883,-79.042c-2.11,-6.982 -5.912,-13.334 -11.07,-18.491c-5.157,-5.157 -11.51,-8.96 -18.491,-11.07l-79.042,-23.883l79.042,-23.883c6.982,-2.11 13.334,-5.912 18.491,-11.07c5.157,-5.157 8.96,-11.51 11.07,-18.491l23.883,-79.042Z" style="fill:#14b8a6;"/><path d="M152.661,561.823l-50.12,0c-38.981,0 -70.628,-31.647 -70.628,-70.628l0,-402.036c0,-38.981 31.647,-70.628 70.628,-70.628l50.12,0l0,48.33l-41.404,0c-17.362,0 -31.458,14.096 -31.458,31.458l0,386.489c0,17.362 14.096,31.458 31.458,31.458l41.404,0l-0,45.556Zm325.713,-543.291l50.282,-0c38.981,0 70.628,31.647 70.628,70.628l0,402.036c0,38.981 -31.647,70.628 -70.628,70.628l-50.282,0l0,-45.556l41.877,0c17.362,0 31.458,-14.096 31.458,-31.458l0,-386.489c0,-17.362 -14.096,-31.458 -31.458,-31.458l-41.877,0l0,-48.33Z" style="fill:#e6f5f3;"/></svg>