<?xml version="1.0" encoding="UTF-8" standalone="no"?><!DOCTYPE svg PUBLIC "-//W3C//DTD SVG 1.1//EN" "http://www.w3.org/Graphics/SVG/1.1/DTD/svg11.dtd"><svg width="100%" height="100%" viewBox="0 0 2768 688" version="1.1" xmlns="http://www.w3.org/2000/svg" xmlns:xlink="http://www.w3.org/1999/xlink" xml:space="preserve" xmlns:serif="http://www.serif.com/" style="fill-rule:evenodd;clip-rule:evenodd;stroke-linejoin:round;stroke-miterlimit:2;"><rect id="BracketWise-Logo-Horizontal-Dark" x="0" y="0" width="2767.798" height="687.641" style="fill:none;"/><path d="M381.046,210.249l23.883,79.042c2.11,6.982 5.912,13.334 11.07,18.491c5.157,5.157 11.51,8.96 18.491,11.07l79.042,23.883l-79.042,23.883c-6.982,2.11 -13.334,5.912 -18.491,11.07c-5.157,5.157 -8.96,11.51 -11.07,18.491l-23.883,79.042l-23.883,-79.042c-2.11,-6.982 -5.912,-13.334 -11.07,-18.491c-5.157,-5.157 -11.51,-8.96 -18.491,-11.07l-79.042,-23.883l79.042,-23.883c6.982,-2.11 13.334,-5.912 18.491,-11.07c5.157,-5.157 8.96,-11.51 11.07,-18.491l23.883,-79.042Z" style="fill:#14b8a6;"/><path d="M216.879,614.38l-50.12,0c-38.981,0 -70.628,-31.647 -70.628,-70.628l0,-402.036c0,-38.981 31.647,-70.628 70.628,-70.628l50.12,0l0,48.33l-41.404,0c-17.362,0 -31.458,14.096 -31.458,31.458l0,386.489c0,17.362 14.096,31.458 31.458,31.458l41.404,0l-0,45.556Zm325.713,-543.291l50.282,0c38.981,0 70.628,31.647 70.628,70.628l0,402.036c0,38.981 -31.647,70.628 -70.628,70.628l-50.282,0l0,-45.556l41.877,0c17.362,0 31.458,-14.096 31.458,-31.458l0,-386.489c0,-17.362 -14.096,-31.458 -31.458,-31.458l-41.877,0l0,-48.33Z" style="fill:#0f172b;"/><g><g transform="matrix(2.584682,0,0,2.710269,-164.182752,-100.462973)"><g><g transform="matrix(124.318714,0,0,124.318714,350.898744,208.050563)"><path d="M0.07,-0l0,-0.728l0.279,0c0.052,0 0.096,0.008 0.131,0.024c0.035,0.016 0.061,0.039 0.079,0.067c0.018,0.028 0.026,0.061 0.026,0.097c0,0.029 -0.006,0.054 -0.017,0.075c-0.011,0.021 -0.026,0.038 -0.045,0.052c-0.019,0.013 -0.041,0.023 -0.065,0.029l0,0.006c0.026,0.002 0.051,0.01 0.075,0.024c0.024,0.014 0.043,0.035 0.058,0.06c0.015,0.026 0.022,0.057 0.022,0.093c0,0.038 -0.009,0.073 -0.028,0.103c-0.018,0.03 -0.046,0.054 -0.083,0.071c-0.037,0.017 -0.083,0.026 -0.139,0.026l-0.294,-0Zm0.13,-0.108l0.145,0c0.047,0 0.082,-0.009 0.104,-0.028c0.022,-0.019 0.033,-0.043 0.033,-0.073c0,-0.022 -0.005,-0.041 -0.016,-0.058c-0.011,-0.017 -0.026,-0.031 -0.046,-0.041c-0.02,-0.01 -0.043,-0.015 -0.071,-0.015l-0.149,0l0,0.214Zm0,-0.31l0.135,0c0.023,0 0.044,-0.004 0.062,-0.013c0.018,-0.008 0.033,-0.02 0.043,-0.036c0.01,-0.015 0.016,-0.034 0.016,-0.055c0,-0.029 -0.01,-0.052 -0.03,-0.071c-0.02,-0.018 -0.05,-0.028 -0.088,-0.028l-0.137,0l0,0.202Z" style="fill:#0f172b;fill-rule:nonzero;"/></g><g transform="matrix(124.318714,0,0,124.318714,432.361495,208.050563)"><path d="M0.064,-0l0,-0.539l0.122,0l0,0.09l0.005,0c0.01,-0.031 0.026,-0.055 0.05,-0.072c0.023,-0.017 0.051,-0.025 0.083,-0.025c0.007,0 0.015,0 0.024,0.001c0.008,0 0.015,0.001 0.021,0.002l0,0.115c-0.005,-0.001 -0.014,-0.003 -0.025,-0.004c-0.012,-0.001 -0.023,-0.002 -0.034,-0.002c-0.022,0 -0.043,0.005 -0.061,0.015c-0.018,0.01 -0.032,0.024 -0.043,0.041c-0.01,0.018 -0.016,0.039 -0.016,0.063l0,0.314l-0.126,-0Z" style="fill:#0f172b;fill-rule:nonzero;"/></g><g transform="matrix(124.318714,0,0,124.318714,479.40593,208.050563)"><path d="M0.218,0.011c-0.035,0 -0.066,-0.006 -0.093,-0.019c-0.028,-0.012 -0.049,-0.031 -0.065,-0.055c-0.016,-0.024 -0.024,-0.054 -0.024,-0.089c0,-0.031 0.006,-0.056 0.017,-0.076c0.011,-0.02 0.027,-0.036 0.047,-0.048c0.02,-0.012 0.042,-0.021 0.067,-0.027c0.025,-0.006 0.05,-0.011 0.077,-0.013c0.032,-0.004 0.058,-0.007 0.077,-0.009c0.02,-0.003 0.034,-0.007 0.043,-0.013c0.009,-0.006 0.013,-0.015 0.013,-0.027l0,-0.003c0,-0.017 -0.004,-0.032 -0.011,-0.044c-0.007,-0.012 -0.018,-0.022 -0.032,-0.028c-0.014,-0.007 -0.031,-0.01 -0.052,-0.01c-0.021,0 -0.038,0.003 -0.054,0.01c-0.015,0.006 -0.028,0.015 -0.038,0.025c-0.01,0.011 -0.016,0.022 -0.02,0.035l-0.118,-0.019c0.009,-0.033 0.024,-0.06 0.046,-0.082c0.022,-0.022 0.048,-0.039 0.08,-0.05c0.031,-0.011 0.066,-0.017 0.105,-0.017c0.027,0 0.054,0.003 0.08,0.01c0.026,0.007 0.05,0.017 0.071,0.031c0.021,0.014 0.038,0.034 0.051,0.057c0.013,0.024 0.019,0.052 0.019,0.087l0,0.362l-0.122,-0l0,-0.075l-0.004,0c-0.008,0.015 -0.019,0.029 -0.033,0.042c-0.014,0.013 -0.031,0.023 -0.052,0.031c-0.021,0.008 -0.045,0.012 -0.073,0.012Zm0.032,-0.094c0.026,0 0.049,-0.005 0.068,-0.015c0.019,-0.01 0.034,-0.024 0.044,-0.041c0.01,-0.017 0.015,-0.035 0.015,-0.056l0,-0.062c-0.004,0.003 -0.011,0.006 -0.02,0.009c-0.009,0.003 -0.02,0.005 -0.032,0.007c-0.012,0.002 -0.024,0.004 -0.036,0.006c-0.012,0.002 -0.022,0.003 -0.031,0.004c-0.019,0.003 -0.035,0.007 -0.051,0.013c-0.015,0.006 -0.027,0.014 -0.036,0.024c-0.009,0.01 -0.013,0.024 -0.013,0.04c0,0.015 0.004,0.028 0.012,0.039c0.008,0.01 0.019,0.018 0.032,0.024c0.014,0.005 0.03,0.008 0.048,0.008Z" style="fill:#0f172b;fill-rule:nonzero;"/></g><g transform="matrix(124.318714,0,0,124.318714,549.881529,208.050563)"><path d="M0.299,0.011c-0.052,0 -0.098,-0.012 -0.137,-0.035c-0.039,-0.023 -0.069,-0.056 -0.09,-0.098c-0.021,-0.042 -0.032,-0.091 -0.032,-0.146c0,-0.056 0.011,-0.104 0.032,-0.146c0.021,-0.042 0.051,-0.075 0.09,-0.098c0.039,-0.023 0.084,-0.035 0.137,-0.035c0.031,0 0.06,0.004 0.086,0.012c0.026,0.008 0.05,0.02 0.07,0.035c0.021,0.015 0.038,0.034 0.051,0.056c0.014,0.022 0.023,0.046 0.028,0.073l-0.12,0.019c-0.003,-0.014 -0.008,-0.027 -0.014,-0.038c-0.007,-0.011 -0.015,-0.021 -0.024,-0.029c-0.01,-0.008 -0.021,-0.014 -0.033,-0.019c-0.013,-0.005 -0.027,-0.007 -0.042,-0.007c-0.029,0 -0.053,0.008 -0.073,0.023c-0.019,0.015 -0.034,0.036 -0.044,0.063c-0.01,0.027 -0.015,0.057 -0.015,0.091c0,0.034 0.005,0.064 0.015,0.09c0.01,0.027 0.025,0.047 0.044,0.063c0.019,0.015 0.044,0.023 0.073,0.023c0.016,0 0.03,-0.002 0.043,-0.007c0.013,-0.005 0.024,-0.011 0.034,-0.019c0.01,-0.008 0.018,-0.018 0.025,-0.031c0.007,-0.012 0.011,-0.025 0.014,-0.04l0.12,0.02c-0.005,0.028 -0.014,0.052 -0.028,0.074c-0.014,0.022 -0.031,0.041 -0.051,0.057c-0.021,0.016 -0.044,0.028 -0.071,0.036c-0.027,0.008 -0.055,0.013 -0.087,0.013Z" style="fill:#0f172b;fill-rule:nonzero;"/></g><g transform="matrix(124.318714,0,0,124.318714,621.267665,208.050563)"><path d="M0.18,-0.169l0,-0.152l0.019,0l0.198,-0.218l0.149,0l-0.241,0.266l-0.026,0l-0.098,0.104Zm-0.115,0.169l0,-0.728l0.126,0l0,0.728l-0.126,-0Zm0.341,-0l-0.179,-0.246l0.085,-0.089l0.245,0.334l-0.152,-0Z" style="fill:#0f172b;fill-rule:nonzero;"/></g><g transform="matrix(124.318714,0,0,124.318714,688.343925,208.050563)"><path d="M0.303,0.011c-0.054,0 -0.101,-0.012 -0.14,-0.035c-0.039,-0.023 -0.069,-0.056 -0.091,-0.097c-0.021,-0.042 -0.032,-0.09 -0.032,-0.146c0,-0.055 0.01,-0.104 0.031,-0.146c0.021,-0.042 0.051,-0.075 0.089,-0.099c0.038,-0.024 0.083,-0.035 0.134,-0.035c0.034,0 0.066,0.006 0.096,0.017c0.03,0.011 0.057,0.028 0.08,0.051c0.023,0.023 0.041,0.051 0.054,0.085c0.013,0.034 0.02,0.075 0.02,0.121l0,0.038l-0.446,0l0,-0.086l0.383,0l-0.059,0.025c0,-0.031 -0.005,-0.057 -0.015,-0.08c-0.01,-0.023 -0.024,-0.04 -0.043,-0.053c-0.019,-0.013 -0.042,-0.019 -0.07,-0.019c-0.027,0 -0.051,0.006 -0.07,0.019c-0.02,0.013 -0.034,0.03 -0.045,0.052c-0.01,0.022 -0.015,0.047 -0.015,0.074l0,0.058c0,0.034 0.006,0.062 0.017,0.085c0.011,0.023 0.028,0.041 0.049,0.053c0.021,0.012 0.045,0.018 0.073,0.018c0.019,0 0.036,-0.003 0.051,-0.008c0.015,-0.006 0.028,-0.014 0.039,-0.024c0.011,-0.011 0.019,-0.024 0.025,-0.039l0.116,0.019c-0.008,0.03 -0.023,0.057 -0.044,0.08c-0.021,0.023 -0.048,0.041 -0.08,0.053c-0.032,0.013 -0.069,0.019 -0.109,0.019Z" style="fill:#0f172b;fill-rule:nonzero;"/></g><g transform="matrix(124.318714,0,0,124.318714,760.822706,208.050563)"><path d="M0.321,-0.539l0,0.099l-0.312,0l0,-0.099l0.312,0Zm-0.231,-0.132l0.126,0l0,0.519c0,0.019 0.004,0.033 0.012,0.042c0.008,0.009 0.022,0.013 0.042,0.013c0.006,0 0.014,-0 0.024,-0.001c0.01,-0.001 0.018,-0.002 0.023,-0.003l0.016,0.098c-0.013,0.003 -0.026,0.006 -0.041,0.007c-0.014,0.001 -0.028,0.002 -0.042,0.002c-0.052,0 -0.092,-0.013 -0.12,-0.038c-0.027,-0.025 -0.041,-0.061 -0.041,-0.108l0,-0.531Z" style="fill:#0f172b;fill-rule:nonzero;"/></g></g></g><g transform="matrix(2.584682,0,0,2.611871,1019.813445,-79.853772)"><g><g transform="matrix(124.318714,0,0,124.318714,350.898744,208.050563)"><path d="M0.217,-0l-0.196,-0.728l0.139,0l0.095,0.388c0.007,0.028 0.013,0.057 0.019,0.087c0.006,0.03 0.011,0.061 0.017,0.091c0.005,0.03 0.011,0.06 0.016,0.09l-0.022,0c0.006,-0.03 0.011,-0.06 0.017,-0.09c0.006,-0.03 0.012,-0.061 0.018,-0.091c0.006,-0.03 0.013,-0.059 0.02,-0.087l0.099,-0.388l0.138,0l0.098,0.388c0.007,0.028 0.014,0.057 0.02,0.087c0.006,0.03 0.012,0.061 0.018,0.091c0.006,0.03 0.012,0.06 0.017,0.09l-0.023,0c0.006,-0.03 0.011,-0.06 0.016,-0.09c0.005,-0.03 0.011,-0.061 0.017,-0.091c0.006,-0.03 0.012,-0.059 0.018,-0.087l0.095,-0.388l0.14,0l-0.197,0.728l-0.148,-0l-0.107,-0.406c-0.009,-0.036 -0.018,-0.075 -0.025,-0.117c-0.007,-0.042 -0.015,-0.086 -0.024,-0.134l0.031,0c-0.009,0.046 -0.017,0.09 -0.023,0.131c-0.007,0.041 -0.015,0.081 -0.025,0.12l-0.107,0.406l-0.149,-0Z" style="fill:#14b8a6;fill-rule:nonzero;"/></g><g transform="matrix(124.318714,0,0,124.318714,476.613615,208.050563)"><path d="M0.064,-0l0,-0.539l0.126,0l0,0.539l-0.126,-0Zm0.063,-0.616c-0.021,0 -0.038,-0.007 -0.052,-0.021c-0.014,-0.014 -0.021,-0.03 -0.021,-0.049c0,-0.02 0.007,-0.036 0.021,-0.049c0.014,-0.013 0.032,-0.02 0.052,-0.02c0.021,0 0.038,0.007 0.052,0.02c0.014,0.013 0.022,0.03 0.022,0.049c0,0.019 -0.007,0.036 -0.022,0.049c-0.014,0.014 -0.032,0.021 -0.052,0.021Z" style="fill:#14b8a6;fill-rule:nonzero;"/></g><g transform="matrix(124.318714,0,0,124.318714,508.300318,208.050563)"><path d="M0.27,0.011c-0.042,0 -0.079,-0.006 -0.111,-0.018c-0.033,-0.012 -0.059,-0.03 -0.08,-0.054c-0.021,-0.024 -0.034,-0.052 -0.039,-0.086l0.12,-0.018c0.006,0.027 0.019,0.047 0.038,0.06c0.019,0.013 0.044,0.02 0.074,0.02c0.031,0 0.055,-0.006 0.073,-0.019c0.018,-0.012 0.027,-0.028 0.027,-0.046c0,-0.016 -0.006,-0.028 -0.018,-0.039c-0.012,-0.01 -0.03,-0.018 -0.054,-0.023l-0.092,-0.02c-0.051,-0.011 -0.089,-0.029 -0.115,-0.055c-0.025,-0.025 -0.038,-0.058 -0.038,-0.098c0,-0.033 0.009,-0.062 0.027,-0.087c0.018,-0.025 0.044,-0.044 0.076,-0.057c0.033,-0.014 0.07,-0.02 0.114,-0.02c0.041,0 0.077,0.006 0.107,0.018c0.03,0.012 0.054,0.029 0.073,0.051c0.018,0.022 0.031,0.048 0.036,0.078l-0.114,0.017c-0.005,-0.02 -0.016,-0.036 -0.032,-0.05c-0.017,-0.014 -0.039,-0.021 -0.068,-0.021c-0.027,0 -0.049,0.006 -0.067,0.018c-0.018,0.012 -0.026,0.027 -0.026,0.045c0,0.016 0.006,0.029 0.018,0.039c0.012,0.01 0.031,0.018 0.058,0.024l0.093,0.02c0.051,0.011 0.09,0.029 0.115,0.053c0.025,0.024 0.037,0.055 0.037,0.093c0,0.035 -0.01,0.065 -0.03,0.09c-0.02,0.026 -0.047,0.046 -0.082,0.06c-0.035,0.014 -0.075,0.022 -0.12,0.022Z" style="fill:#14b8a6;fill-rule:nonzero;"/></g><g transform="matrix(124.318714,0,0,124.318714,575.376578,208.050563)"><path d="M0.303,0.011c-0.054,0 -0.101,-0.012 -0.14,-0.035c-0.039,-0.023 -0.069,-0.056 -0.091,-0.097c-0.021,-0.042 -0.032,-0.09 -0.032,-0.146c0,-0.055 0.01,-0.104 0.031,-0.146c0.021,-0.042 0.051,-0.075 0.089,-0.099c0.038,-0.024 0.083,-0.035 0.134,-0.035c0.034,0 0.066,0.006 0.096,0.017c0.03,0.011 0.057,0.028 0.08,0.051c0.023,0.023 0.041,0.051 0.054,0.085c0.013,0.034 0.02,0.075 0.02,0.121l0,0.038l-0.446,0l0,-0.086l0.383,0l-0.059,0.025c0,-0.031 -0.005,-0.057 -0.015,-0.08c-0.01,-0.023 -0.024,-0.04 -0.043,-0.053c-0.019,-0.013 -0.042,-0.019 -0.07,-0.019c-0.027,0 -0.051,0.006 -0.07,0.019c-0.02,0.013 -0.034,0.03 -0.045,0.052c-0.01,0.022 -0.015,0.047 -0.015,0.074l0,0.058c0,0.034 0.006,0.062 0.017,0.085c0.011,0.023 0.028,0.041 0.049,0.053c0.021,0.012 0.045,0.018 0.073,0.018c0.019,0 0.036,-0.003 0.051,-0.008c0.015,-0.006 0.028,-0.014 0.039,-0.024c0.011,-0.011 0.019,-0.024 0.025,-0.039l0.116,0.019c-0.008,0.03 -0.023,0.057 -0.044,0.08c-0.021,0.023 -0.048,0.041 -0.08,0.053c-0.032,0.013 -0.069,0.019 -0.109,0.019Z" style="fill:#14b8a6;fill-rule:nonzero;"/></g></g></g></g></svg>