<?xml version="1.0" encoding="UTF-8" standalone="no"?>
<!DOCTYPE svg PUBLIC "-//W3C//DTD SVG 1.1//EN" "http://www.w3.org/Graphics/SVG/1.1/DTD/svg11.dtd">
<svg width="100%" height="100%" viewBox="0 0 229 210" version="1.1" xmlns="http://www.w3.org/2000/svg" xmlns:xlink="http://www.w3.org/1999/xlink" xml:space="preserve" xmlns:serif="http://www.serif.com/" style="fill-rule:evenodd;clip-rule:evenodd;stroke-linejoin:round;stroke-miterlimit:2;">
    <g transform="matrix(1,0,0,1,-1936.347187,-532.225539)">
        <g id="BracketWise-LogoMark-Dark" transform="matrix(0.205638,0,0,0.630225,1698.013059,532.225539)">
            <rect x="1159" y="0" width="1109" height="332" style="fill:none;"/>
            <g transform="matrix(4.862921,0,0,1.586734,1051.036541,-28.801084)">
                <path d="M136.259,74.616L144.857,103.071C145.616,105.585 146.985,107.872 148.842,109.728C150.698,111.585 152.985,112.954 155.499,113.713L183.954,122.311L155.499,130.909C152.985,131.668 150.698,133.037 148.842,134.894C146.985,136.751 145.616,139.037 144.857,141.551L136.259,170.006L127.661,141.551C126.902,139.037 125.533,136.751 123.676,134.894C121.82,133.037 119.533,131.668 117.019,130.909L88.564,122.311L117.019,113.713C119.533,112.954 121.82,111.585 123.676,109.728C125.533,107.872 126.902,105.585 127.661,103.071L136.259,74.616Z" style="fill:rgb(20,184,166);"/>
            </g>
            <g transform="matrix(4.862921,0,0,1.598625,867.302874,-98.93465)">
                <path d="M114.942,262.639L96.898,262.639C82.865,262.639 71.472,251.331 71.472,237.402L71.472,93.746C71.472,79.817 82.865,68.509 96.898,68.509L114.942,68.509L114.942,85.778L100.036,85.778C93.786,85.778 88.711,90.815 88.711,97.019L88.711,235.12C88.711,241.324 93.786,246.361 100.036,246.361L114.942,246.361L114.942,262.639ZM232.199,68.509L250.3,68.509C264.333,68.509 275.726,79.817 275.726,93.746L275.726,237.402C275.726,251.331 264.333,262.639 250.3,262.639L232.199,262.639L232.199,246.361L247.274,246.361C253.525,246.361 258.599,241.324 258.599,235.12L258.599,97.019C258.599,90.815 253.525,85.778 247.274,85.778L232.199,85.778L232.199,68.509Z" style="fill:rgb(15,23,43);"/>
            </g>
        </g>
    </g>
</svg>
